<?xml version="1.0" standalone="no"?>
<!DOCTYPE svg PUBLIC "-//W3C//DTD SVG 20010904//EN"
 "http://www.w3.org/TR/2001/REC-SVG-20010904/DTD/svg10.dtd">
<svg version="1.0" xmlns="http://www.w3.org/2000/svg"
 width="495.000000pt" height="609.000000pt" viewBox="0 0 495.000000 609.000000"
 preserveAspectRatio="xMidYMid meet">

<g transform="translate(0.000000,609.000000) scale(0.100000,-0.100000)"
fill="#000000" stroke="none">
<path d="M1633 2101 c-91 -23 -141 -105 -127 -209 13 -91 78 -145 174 -145 64
0 110 21 143 64 41 56 41 172 0 228 -39 52 -121 78 -190 62z m92 -57 c60 -23
60 -215 0 -238 -9 -3 -29 -6 -45 -6 -42 0 -59 9 -75 41 -30 57 -12 186 27 202
19 8 74 8 93 1z"/>
<path d="M3242 2098 c-88 -19 -141 -114 -122 -217 10 -54 35 -89 84 -114 44
-23 126 -26 194 -8 l42 12 0 84 0 85 -70 0 -70 0 0 -30 c0 -27 3 -30 30 -30
28 0 30 -2 30 -40 l0 -40 -49 0 c-74 0 -103 29 -109 107 -5 67 13 114 49 134
23 12 130 8 162 -6 14 -6 17 -2 17 19 0 18 -7 29 -22 35 -40 14 -122 19 -166
9z"/>
<path d="M1120 1926 l0 -176 40 0 39 0 3 120 3 120 65 -117 65 -118 48 -3 47
-3 0 175 0 176 -40 0 -39 0 -3 -120 -3 -120 -65 117 -65 118 -48 3 -47 3 0
-175z"/>
<path d="M2100 1925 l0 -175 45 0 45 0 0 175 0 175 -45 0 -45 0 0 -175z"/>
<path d="M2280 1925 l0 -175 40 0 40 0 0 133 0 132 44 -95 c39 -87 45 -95 71
-95 26 0 32 8 71 95 l44 95 0 -132 0 -133 40 0 40 0 0 175 0 175 -53 0 -53 0
-44 -97 -45 -97 -44 97 -45 97 -53 0 -53 0 0 -175z"/>
<path d="M2792 1933 c-34 -93 -62 -171 -62 -175 0 -5 18 -8 40 -8 36 0 40 3
48 33 l8 32 79 0 79 0 8 -32 c8 -30 12 -33 48 -33 22 0 40 3 40 7 0 4 -28 83
-62 175 l-62 168 -51 0 -50 0 -63 -167z m143 14 l25 -67 -55 0 -54 0 24 65
c14 36 25 68 25 72 0 15 11 -7 35 -70z"/>
<path d="M3520 1925 l0 -175 125 0 125 0 0 30 0 30 -80 0 -80 0 0 45 0 45 75
0 75 0 0 30 0 30 -75 0 -75 0 0 40 0 40 75 0 75 0 0 30 0 30 -120 0 -120 0 0
-175z"/>
<path d="M1052 1333 c-34 -93 -62 -171 -62 -175 0 -5 18 -8 40 -8 36 0 40 3
48 33 l8 32 79 0 79 0 8 -32 c8 -30 12 -33 48 -33 22 0 40 3 40 7 0 4 -28 83
-62 175 l-62 168 -51 0 -50 0 -63 -167z m143 14 l25 -67 -55 0 -54 0 24 65
c14 36 25 68 25 72 0 15 11 -7 35 -70z"/>
<path d="M1330 1493 c0 -5 28 -83 62 -175 l63 -168 50 0 50 0 63 168 c34 92
62 170 62 175 0 4 -18 7 -39 7 l-39 0 -41 -116 c-23 -64 -45 -123 -50 -132 -6
-10 -23 25 -56 117 l-48 131 -38 0 c-22 0 -39 -3 -39 -7z"/>
<path d="M1732 1333 c-34 -93 -62 -171 -62 -175 0 -5 18 -8 40 -8 36 0 40 3
48 33 l8 32 79 0 79 0 8 -32 c8 -30 12 -33 48 -33 22 0 40 3 40 7 0 4 -28 83
-62 175 l-62 168 -51 0 -50 0 -63 -167z m143 14 l25 -67 -55 0 -54 0 24 65
c14 36 25 68 25 72 0 15 11 -7 35 -70z"/>
<path d="M2070 1325 l0 -175 45 0 45 0 0 175 0 175 -45 0 -45 0 0 -175z"/>
<path d="M2250 1325 l0 -175 125 0 125 0 0 30 0 30 -80 0 -80 0 0 145 0 145
-45 0 -45 0 0 -175z"/>
<path d="M2592 1333 c-34 -93 -62 -171 -62 -175 0 -5 18 -8 40 -8 36 0 40 3
48 33 l8 32 79 0 79 0 8 -32 c8 -30 12 -33 48 -33 22 0 40 3 40 7 0 4 -28 83
-62 175 l-62 168 -51 0 -50 0 -63 -167z m143 14 l25 -67 -55 0 -54 0 24 65
c14 36 25 68 25 72 0 15 11 -7 35 -70z"/>
<path d="M2930 1325 l0 -178 111 5 c123 6 157 20 170 72 10 35 -7 83 -34 98
-18 9 -19 12 -5 22 44 32 42 95 -4 129 -20 15 -48 20 -132 24 l-106 6 0 -178z
m185 75 c0 -35 0 -35 -47 -38 l-48 -3 0 41 0 41 48 -3 c47 -3 47 -3 47 -38z
m-1 -106 c10 -4 16 -18 16 -39 0 -37 -12 -45 -71 -45 l-39 0 0 45 0 45 39 0
c22 0 46 -3 55 -6z"/>
<path d="M3300 1325 l0 -175 125 0 125 0 0 30 0 30 -80 0 -80 0 0 145 0 145
-45 0 -45 0 0 -175z"/>
<path d="M3610 1325 l0 -175 125 0 125 0 0 30 0 30 -80 0 -80 0 0 45 0 45 75
0 75 0 0 30 0 30 -75 0 -75 0 0 40 0 40 75 0 75 0 0 30 0 30 -120 0 -120 0 0
-175z"/>
</g>
</svg>
